<svg width="36" height="28" viewBox="0 0 36 28" fill="none" xmlns="http://www.w3.org/2000/svg">
<path d="M8.1 26.25C3.62812 26.25 0 22.7227 0 18.375C0 14.9406 2.26125 12.0203 5.41125 10.943C5.40562 10.7953 5.4 10.6477 5.4 10.5C5.4 5.66562 9.4275 1.75 14.4 1.75C17.7356 1.75 20.6438 3.51094 22.2019 6.13594C23.0569 5.57812 24.0919 5.25 25.2 5.25C28.1812 5.25 30.6 7.60156 30.6 10.5C30.6 11.1672 30.4706 11.8016 30.24 12.3922C33.525 13.0375 36 15.8648 36 19.25C36 23.1164 32.7769 26.25 28.8 26.25H8.1ZM12.5437 14.3828C12.015 14.8969 12.015 15.7281 12.5437 16.2367C13.0725 16.7453 13.9275 16.7508 14.4506 16.2367L16.6444 14.1039V21.4375C16.6444 22.1648 17.2462 22.75 17.9944 22.75C18.7425 22.75 19.3444 22.1648 19.3444 21.4375V14.1039L21.5381 16.2367C22.0669 16.7508 22.9219 16.7508 23.445 16.2367C23.9681 15.7227 23.9737 14.8914 23.445 14.3828L18.945 10.0078C18.4162 9.49375 17.5612 9.49375 17.0381 10.0078L12.5381 14.3828H12.5437Z" fill="black"/>
</svg>
