<svg width="35" height="28" viewBox="0 0 35 28" fill="none" xmlns="http://www.w3.org/2000/svg">
<g clip-path="url(#clip0_20_8)">
<path d="M14 0H31.5C33.4305 0 35 1.56953 35 3.5V15.75C35 17.6805 33.4305 19.25 31.5 19.25H14C12.0695 19.25 10.5 17.6805 10.5 15.75V3.5C10.5 1.56953 12.0695 0 14 0ZM26.0312 5.83516C25.7852 5.46875 25.375 5.25 24.9375 5.25C24.5 5.25 24.0898 5.46875 23.8438 5.83516L20.7812 10.4289L19.8352 9.24219C19.5836 8.93047 19.2062 8.75 18.8125 8.75C18.4188 8.75 18.0359 8.93047 17.7898 9.24219L14.2898 13.6172C13.9727 14.0109 13.9125 14.5523 14.1312 15.0062C14.35 15.4602 14.8094 15.75 15.3125 15.75H19.6875H22.3125H30.1875C30.6742 15.75 31.1172 15.482 31.3469 15.0555C31.5766 14.6289 31.5492 14.1094 31.2812 13.7102L26.0312 5.83516ZM18.375 5.25C18.375 4.78587 18.1906 4.34075 17.8624 4.01256C17.5342 3.68437 17.0891 3.5 16.625 3.5C16.1609 3.5 15.7158 3.68437 15.3876 4.01256C15.0594 4.34075 14.875 4.78587 14.875 5.25C14.875 5.71413 15.0594 6.15925 15.3876 6.48744C15.7158 6.81563 16.1609 7 16.625 7C17.0891 7 17.5342 6.81563 17.8624 6.48744C18.1906 6.15925 18.375 5.71413 18.375 5.25ZM3.5 7H8.75V21V22.75C8.75 23.718 9.53203 24.5 10.5 24.5H17.5C18.468 24.5 19.25 23.718 19.25 22.75V21H28V24.5C28 26.4305 26.4305 28 24.5 28H3.5C1.56953 28 0 26.4305 0 24.5V10.5C0 8.56953 1.56953 7 3.5 7ZM3.9375 10.5C3.45625 10.5 3.0625 10.8937 3.0625 11.375V12.25C3.0625 12.7313 3.45625 13.125 3.9375 13.125H4.8125C5.29375 13.125 5.6875 12.7313 5.6875 12.25V11.375C5.6875 10.8937 5.29375 10.5 4.8125 10.5H3.9375ZM3.9375 16.1875C3.45625 16.1875 3.0625 16.5812 3.0625 17.0625V17.9375C3.0625 18.4188 3.45625 18.8125 3.9375 18.8125H4.8125C5.29375 18.8125 5.6875 18.4188 5.6875 17.9375V17.0625C5.6875 16.5812 5.29375 16.1875 4.8125 16.1875H3.9375ZM3.9375 21.875C3.45625 21.875 3.0625 22.2687 3.0625 22.75V23.625C3.0625 24.1063 3.45625 24.5 3.9375 24.5H4.8125C5.29375 24.5 5.6875 24.1063 5.6875 23.625V22.75C5.6875 22.2687 5.29375 21.875 4.8125 21.875H3.9375ZM22.3125 22.75V23.625C22.3125 24.1063 22.7062 24.5 23.1875 24.5H24.0625C24.5438 24.5 24.9375 24.1063 24.9375 23.625V22.75C24.9375 22.2687 24.5438 21.875 24.0625 21.875H23.1875C22.7062 21.875 22.3125 22.2687 22.3125 22.75Z" fill="black"/>
</g>
<defs>
<clipPath id="clip0_20_8">
<rect width="35" height="28" fill="white"/>
</clipPath>
</defs>
</svg>
