<svg width="34" height="38" viewBox="0 0 34 38" fill="none" xmlns="http://www.w3.org/2000/svg">
<path d="M0 5.9375C0 3.9707 1.6317 2.375 3.64286 2.375H10.9286C12.9397 2.375 14.5714 3.9707 14.5714 5.9375V13.0625C14.5714 15.0293 12.9397 16.625 10.9286 16.625H3.64286C1.6317 16.625 0 15.0293 0 13.0625V5.9375ZM4.85714 7.125V11.875H9.71429V7.125H4.85714ZM0 24.9375C0 22.9707 1.6317 21.375 3.64286 21.375H10.9286C12.9397 21.375 14.5714 22.9707 14.5714 24.9375V32.0625C14.5714 34.0293 12.9397 35.625 10.9286 35.625H3.64286C1.6317 35.625 0 34.0293 0 32.0625V24.9375ZM4.85714 26.125V30.875H9.71429V26.125H4.85714ZM23.0714 2.375H30.3571C32.3683 2.375 34 3.9707 34 5.9375V13.0625C34 15.0293 32.3683 16.625 30.3571 16.625H23.0714C21.0603 16.625 19.4286 15.0293 19.4286 13.0625V5.9375C19.4286 3.9707 21.0603 2.375 23.0714 2.375ZM29.1429 7.125H24.2857V11.875H29.1429V7.125ZM19.4286 22.5625C19.4286 21.9094 19.975 21.375 20.6429 21.375H25.5C26.1679 21.375 26.7143 21.9094 26.7143 22.5625C26.7143 23.2156 27.2607 23.75 27.9286 23.75H30.3571C31.025 23.75 31.5714 23.2156 31.5714 22.5625C31.5714 21.9094 32.1179 21.375 32.7857 21.375C33.4536 21.375 34 21.9094 34 22.5625V29.6875C34 30.3406 33.4536 30.875 32.7857 30.875H27.9286C27.2607 30.875 26.7143 30.3406 26.7143 29.6875C26.7143 29.0344 26.1679 28.5 25.5 28.5C24.8321 28.5 24.2857 29.0344 24.2857 29.6875V34.4375C24.2857 35.0906 23.7393 35.625 23.0714 35.625H20.6429C19.975 35.625 19.4286 35.0906 19.4286 34.4375V22.5625ZM27.9286 35.625C27.6065 35.625 27.2977 35.4999 27.0699 35.2772C26.8422 35.0545 26.7143 34.7524 26.7143 34.4375C26.7143 34.1226 26.8422 33.8205 27.0699 33.5978C27.2977 33.3751 27.6065 33.25 27.9286 33.25C28.2506 33.25 28.5595 33.3751 28.7872 33.5978C29.0149 33.8205 29.1429 34.1226 29.1429 34.4375C29.1429 34.7524 29.0149 35.0545 28.7872 35.2772C28.5595 35.4999 28.2506 35.625 27.9286 35.625ZM32.7857 35.625C32.4637 35.625 32.1548 35.4999 31.9271 35.2772C31.6994 35.0545 31.5714 34.7524 31.5714 34.4375C31.5714 34.1226 31.6994 33.8205 31.9271 33.5978C32.1548 33.3751 32.4637 33.25 32.7857 33.25C33.1078 33.25 33.4166 33.3751 33.6443 33.5978C33.8721 33.8205 34 34.1226 34 34.4375C34 34.7524 33.8721 35.0545 33.6443 35.2772C33.4166 35.4999 33.1078 35.625 32.7857 35.625Z" fill="black"/>
</svg>
