<svg width="36" height="29" viewBox="0 0 36 29" fill="none" xmlns="http://www.w3.org/2000/svg">
<path d="M3.04877 11.4924C6.93002 7.74277 12.195 5.4375 18 5.4375C23.805 5.4375 29.07 7.74277 32.9513 11.4924C33.6713 12.1834 34.8075 12.1607 35.4938 11.4414C36.18 10.7221 36.1575 9.57227 35.4431 8.88125C30.9206 4.50293 24.7725 1.8125 18 1.8125C11.2275 1.8125 5.0794 4.50293 0.551271 8.87559C-0.163104 9.57227 -0.185604 10.7164 0.500646 11.4414C1.1869 12.1664 2.32877 12.1891 3.04315 11.4924H3.04877ZM18 14.5C21.195 14.5 24.1088 15.6951 26.3363 17.6719C27.0844 18.3346 28.2206 18.2609 28.8788 17.5133C29.5369 16.7656 29.4638 15.6158 28.7213 14.9531C25.8638 12.4156 22.1063 10.875 18 10.875C13.8938 10.875 10.1363 12.4156 7.2844 14.9531C6.53627 15.6158 6.46877 16.76 7.1269 17.5133C7.78502 18.2666 8.92127 18.3346 9.6694 17.6719C11.8913 15.6951 14.805 14.5 18.0056 14.5H18ZM21.6 23.5625C21.6 22.6011 21.2207 21.6791 20.5456 20.9992C19.8705 20.3194 18.9548 19.9375 18 19.9375C17.0452 19.9375 16.1296 20.3194 15.4544 20.9992C14.7793 21.6791 14.4 22.6011 14.4 23.5625C14.4 24.5239 14.7793 25.4459 15.4544 26.1258C16.1296 26.8056 17.0452 27.1875 18 27.1875C18.9548 27.1875 19.8705 26.8056 20.5456 26.1258C21.2207 25.4459 21.6 24.5239 21.6 23.5625Z" fill="black"/>
</svg>
